<mxfile host="app.diagrams.net" modified="2020-09-03T13:29:57.474Z" agent="5.0 (Windows NT 10.0; Win64; x64) AppleWebKit/537.36 (KHTML, like Gecko) Chrome/86.0.4240.22 Safari/537.36" etag="CIMs76w-2B2cXd--TmJG" compressed="false" version="13.6.6" type="device">
  <diagram id="C5RBs43oDa-KdzZeNtuy" name="Page-1">
    <mxGraphModel dx="1600" dy="944" grid="1" gridSize="10" guides="1" tooltips="1" connect="1" arrows="1" fold="1" page="1" pageScale="1" pageWidth="1400" pageHeight="1650" background="#114B5F" math="0" shadow="0">
      <root>
        <mxCell id="WIyWlLk6GJQsqaUBKTNV-0" />
        <mxCell id="WIyWlLk6GJQsqaUBKTNV-1" parent="WIyWlLk6GJQsqaUBKTNV-0" />
        <mxCell id="p3bBlaLwR1i7pQpd7jYo-38" style="edgeStyle=orthogonalEdgeStyle;orthogonalLoop=1;jettySize=auto;html=1;entryX=1;entryY=0.5;entryDx=0;entryDy=0;exitX=0;exitY=0.5;exitDx=0;exitDy=0;labelBackgroundColor=#114B5F;strokeColor=#028090;fontColor=#E4FDE1;" parent="WIyWlLk6GJQsqaUBKTNV-1" source="p3bBlaLwR1i7pQpd7jYo-30" target="p3bBlaLwR1i7pQpd7jYo-40" edge="1">
          <mxGeometry relative="1" as="geometry">
            <mxPoint x="160" y="-5" as="sourcePoint" />
          </mxGeometry>
        </mxCell>
        <mxCell id="p3bBlaLwR1i7pQpd7jYo-55" style="edgeStyle=orthogonalEdgeStyle;orthogonalLoop=1;jettySize=auto;html=1;exitX=0;exitY=0.5;exitDx=0;exitDy=0;entryX=1;entryY=0.5;entryDx=0;entryDy=0;labelBackgroundColor=#114B5F;strokeColor=#028090;fontColor=#E4FDE1;" parent="WIyWlLk6GJQsqaUBKTNV-1" source="p3bBlaLwR1i7pQpd7jYo-42" target="p3bBlaLwR1i7pQpd7jYo-50" edge="1">
          <mxGeometry relative="1" as="geometry" />
        </mxCell>
        <mxCell id="p3bBlaLwR1i7pQpd7jYo-64" style="edgeStyle=orthogonalEdgeStyle;orthogonalLoop=1;jettySize=auto;html=1;exitX=0;exitY=0.5;exitDx=0;exitDy=0;entryX=1;entryY=0.5;entryDx=0;entryDy=0;labelBackgroundColor=#114B5F;strokeColor=#028090;fontColor=#E4FDE1;" parent="WIyWlLk6GJQsqaUBKTNV-1" source="p3bBlaLwR1i7pQpd7jYo-59" target="p3bBlaLwR1i7pQpd7jYo-61" edge="1">
          <mxGeometry relative="1" as="geometry" />
        </mxCell>
        <mxCell id="p3bBlaLwR1i7pQpd7jYo-74" style="edgeStyle=orthogonalEdgeStyle;orthogonalLoop=1;jettySize=auto;html=1;exitX=0;exitY=0.5;exitDx=0;exitDy=0;labelBackgroundColor=#114B5F;strokeColor=#028090;fontColor=#E4FDE1;" parent="WIyWlLk6GJQsqaUBKTNV-1" target="p3bBlaLwR1i7pQpd7jYo-73" edge="1">
          <mxGeometry relative="1" as="geometry">
            <mxPoint x="480" y="417" as="sourcePoint" />
          </mxGeometry>
        </mxCell>
        <mxCell id="p3bBlaLwR1i7pQpd7jYo-75" style="edgeStyle=orthogonalEdgeStyle;orthogonalLoop=1;jettySize=auto;html=1;exitX=0;exitY=0.5;exitDx=0;exitDy=0;entryX=1;entryY=0.5;entryDx=0;entryDy=0;labelBackgroundColor=#114B5F;strokeColor=#028090;fontColor=#E4FDE1;" parent="WIyWlLk6GJQsqaUBKTNV-1" target="p3bBlaLwR1i7pQpd7jYo-72" edge="1">
          <mxGeometry relative="1" as="geometry">
            <mxPoint x="480" y="287" as="sourcePoint" />
          </mxGeometry>
        </mxCell>
        <mxCell id="p3bBlaLwR1i7pQpd7jYo-96" style="edgeStyle=orthogonalEdgeStyle;orthogonalLoop=1;jettySize=auto;html=1;exitX=1;exitY=0.5;exitDx=0;exitDy=0;entryX=0;entryY=0.5;entryDx=0;entryDy=0;labelBackgroundColor=#114B5F;strokeColor=#028090;fontColor=#E4FDE1;" parent="WIyWlLk6GJQsqaUBKTNV-1" source="p3bBlaLwR1i7pQpd7jYo-13" target="p3bBlaLwR1i7pQpd7jYo-80" edge="1">
          <mxGeometry relative="1" as="geometry" />
        </mxCell>
        <mxCell id="p3bBlaLwR1i7pQpd7jYo-97" style="edgeStyle=orthogonalEdgeStyle;orthogonalLoop=1;jettySize=auto;html=1;exitX=1;exitY=0.5;exitDx=0;exitDy=0;entryX=0;entryY=0.5;entryDx=0;entryDy=0;labelBackgroundColor=#114B5F;strokeColor=#028090;fontColor=#E4FDE1;" parent="WIyWlLk6GJQsqaUBKTNV-1" source="p3bBlaLwR1i7pQpd7jYo-85" target="p3bBlaLwR1i7pQpd7jYo-91" edge="1">
          <mxGeometry relative="1" as="geometry" />
        </mxCell>
        <mxCell id="p3bBlaLwR1i7pQpd7jYo-115" style="edgeStyle=orthogonalEdgeStyle;orthogonalLoop=1;jettySize=auto;html=1;exitX=1;exitY=0.5;exitDx=0;exitDy=0;entryX=0;entryY=0.5;entryDx=0;entryDy=0;labelBackgroundColor=#114B5F;strokeColor=#028090;fontColor=#E4FDE1;" parent="WIyWlLk6GJQsqaUBKTNV-1" source="p3bBlaLwR1i7pQpd7jYo-68" target="p3bBlaLwR1i7pQpd7jYo-100" edge="1">
          <mxGeometry relative="1" as="geometry" />
        </mxCell>
        <mxCell id="p3bBlaLwR1i7pQpd7jYo-116" style="edgeStyle=orthogonalEdgeStyle;orthogonalLoop=1;jettySize=auto;html=1;exitX=1;exitY=0.5;exitDx=0;exitDy=0;entryX=0;entryY=0.5;entryDx=0;entryDy=0;labelBackgroundColor=#114B5F;strokeColor=#028090;fontColor=#E4FDE1;" parent="WIyWlLk6GJQsqaUBKTNV-1" source="p3bBlaLwR1i7pQpd7jYo-100" target="p3bBlaLwR1i7pQpd7jYo-106" edge="1">
          <mxGeometry relative="1" as="geometry" />
        </mxCell>
        <mxCell id="p3bBlaLwR1i7pQpd7jYo-117" style="edgeStyle=orthogonalEdgeStyle;orthogonalLoop=1;jettySize=auto;html=1;exitX=1;exitY=0.5;exitDx=0;exitDy=0;entryX=0;entryY=0.5;entryDx=0;entryDy=0;labelBackgroundColor=#114B5F;strokeColor=#028090;fontColor=#E4FDE1;" parent="WIyWlLk6GJQsqaUBKTNV-1" source="p3bBlaLwR1i7pQpd7jYo-105" target="p3bBlaLwR1i7pQpd7jYo-110" edge="1">
          <mxGeometry relative="1" as="geometry" />
        </mxCell>
        <mxCell id="p3bBlaLwR1i7pQpd7jYo-143" style="edgeStyle=orthogonalEdgeStyle;orthogonalLoop=1;jettySize=auto;html=1;exitX=1;exitY=0.5;exitDx=0;exitDy=0;entryX=1;entryY=0.5;entryDx=0;entryDy=0;labelBackgroundColor=#114B5F;strokeColor=#028090;fontColor=#E4FDE1;" parent="WIyWlLk6GJQsqaUBKTNV-1" source="p3bBlaLwR1i7pQpd7jYo-129" target="p3bBlaLwR1i7pQpd7jYo-91" edge="1">
          <mxGeometry relative="1" as="geometry" />
        </mxCell>
        <mxCell id="p3bBlaLwR1i7pQpd7jYo-144" style="edgeStyle=orthogonalEdgeStyle;orthogonalLoop=1;jettySize=auto;html=1;exitX=1;exitY=0.5;exitDx=0;exitDy=0;entryX=0;entryY=0.5;entryDx=0;entryDy=0;labelBackgroundColor=#114B5F;strokeColor=#028090;fontColor=#E4FDE1;" parent="WIyWlLk6GJQsqaUBKTNV-1" source="p3bBlaLwR1i7pQpd7jYo-101" target="p3bBlaLwR1i7pQpd7jYo-127" edge="1">
          <mxGeometry relative="1" as="geometry" />
        </mxCell>
        <mxCell id="p3bBlaLwR1i7pQpd7jYo-145" style="edgeStyle=orthogonalEdgeStyle;orthogonalLoop=1;jettySize=auto;html=1;exitX=1;exitY=0.5;exitDx=0;exitDy=0;entryX=0;entryY=0.5;entryDx=0;entryDy=0;labelBackgroundColor=#114B5F;strokeColor=#028090;fontColor=#E4FDE1;" parent="WIyWlLk6GJQsqaUBKTNV-1" source="p3bBlaLwR1i7pQpd7jYo-103" target="p3bBlaLwR1i7pQpd7jYo-123" edge="1">
          <mxGeometry relative="1" as="geometry" />
        </mxCell>
        <mxCell id="p3bBlaLwR1i7pQpd7jYo-153" style="edgeStyle=orthogonalEdgeStyle;orthogonalLoop=1;jettySize=auto;html=1;exitX=1;exitY=0.5;exitDx=0;exitDy=0;entryX=1;entryY=0.5;entryDx=0;entryDy=0;labelBackgroundColor=#114B5F;strokeColor=#028090;fontColor=#E4FDE1;" parent="WIyWlLk6GJQsqaUBKTNV-1" source="p3bBlaLwR1i7pQpd7jYo-146" target="p3bBlaLwR1i7pQpd7jYo-7" edge="1">
          <mxGeometry relative="1" as="geometry" />
        </mxCell>
        <mxCell id="p3bBlaLwR1i7pQpd7jYo-154" style="edgeStyle=orthogonalEdgeStyle;orthogonalLoop=1;jettySize=auto;html=1;exitX=1;exitY=0.5;exitDx=0;exitDy=0;entryX=1.005;entryY=0.769;entryDx=0;entryDy=0;entryPerimeter=0;labelBackgroundColor=#114B5F;strokeColor=#028090;fontColor=#E4FDE1;" parent="WIyWlLk6GJQsqaUBKTNV-1" source="p3bBlaLwR1i7pQpd7jYo-146" target="p3bBlaLwR1i7pQpd7jYo-151" edge="1">
          <mxGeometry relative="1" as="geometry" />
        </mxCell>
        <mxCell id="p3bBlaLwR1i7pQpd7jYo-165" style="edgeStyle=orthogonalEdgeStyle;orthogonalLoop=1;jettySize=auto;html=1;exitX=1;exitY=0.5;exitDx=0;exitDy=0;labelBackgroundColor=#114B5F;strokeColor=#028090;fontColor=#E4FDE1;" parent="WIyWlLk6GJQsqaUBKTNV-1" source="p3bBlaLwR1i7pQpd7jYo-150" target="p3bBlaLwR1i7pQpd7jYo-159" edge="1">
          <mxGeometry relative="1" as="geometry" />
        </mxCell>
        <mxCell id="p3bBlaLwR1i7pQpd7jYo-170" style="edgeStyle=orthogonalEdgeStyle;orthogonalLoop=1;jettySize=auto;html=1;exitX=1;exitY=0.5;exitDx=0;exitDy=0;entryX=1;entryY=0.5;entryDx=0;entryDy=0;labelBackgroundColor=#114B5F;strokeColor=#028090;fontColor=#E4FDE1;" parent="WIyWlLk6GJQsqaUBKTNV-1" source="p3bBlaLwR1i7pQpd7jYo-167" target="p3bBlaLwR1i7pQpd7jYo-146" edge="1">
          <mxGeometry relative="1" as="geometry" />
        </mxCell>
        <mxCell id="p3bBlaLwR1i7pQpd7jYo-171" style="edgeStyle=orthogonalEdgeStyle;orthogonalLoop=1;jettySize=auto;html=1;exitX=1;exitY=0.5;exitDx=0;exitDy=0;entryX=1;entryY=0.5;entryDx=0;entryDy=0;labelBackgroundColor=#114B5F;strokeColor=#028090;fontColor=#E4FDE1;" parent="WIyWlLk6GJQsqaUBKTNV-1" source="p3bBlaLwR1i7pQpd7jYo-146" target="p3bBlaLwR1i7pQpd7jYo-167" edge="1">
          <mxGeometry relative="1" as="geometry" />
        </mxCell>
        <mxCell id="p3bBlaLwR1i7pQpd7jYo-219" style="edgeStyle=orthogonalEdgeStyle;curved=0;rounded=1;sketch=0;orthogonalLoop=1;jettySize=auto;html=1;exitX=1;exitY=0.5;exitDx=0;exitDy=0;entryX=-0.01;entryY=1.115;entryDx=0;entryDy=0;entryPerimeter=0;strokeColor=#028090;fillColor=#F45B69;fontColor=#E4FDE1;" parent="WIyWlLk6GJQsqaUBKTNV-1" source="p3bBlaLwR1i7pQpd7jYo-24" target="p3bBlaLwR1i7pQpd7jYo-173" edge="1">
          <mxGeometry relative="1" as="geometry" />
        </mxCell>
        <mxCell id="p3bBlaLwR1i7pQpd7jYo-6" value="Client" style="swimlane;fontStyle=0;childLayout=stackLayout;horizontal=1;startSize=26;fillColor=#F45B69;horizontalStack=0;resizeParent=1;resizeParentMax=0;resizeLast=0;collapsible=1;marginBottom=0;strokeColor=#028090;fontColor=#E4FDE1;" parent="WIyWlLk6GJQsqaUBKTNV-1" vertex="1">
          <mxGeometry x="240" y="40" width="200" height="442" as="geometry" />
        </mxCell>
        <mxCell id="p3bBlaLwR1i7pQpd7jYo-7" value="+ _id: ObjectID" style="text;strokeColor=none;fillColor=none;align=left;verticalAlign=top;spacingLeft=4;spacingRight=4;overflow=hidden;rotatable=0;points=[[0,0.5],[1,0.5]];portConstraint=eastwest;fontColor=#E4FDE1;" parent="p3bBlaLwR1i7pQpd7jYo-6" vertex="1">
          <mxGeometry y="26" width="200" height="26" as="geometry" />
        </mxCell>
        <mxCell id="p3bBlaLwR1i7pQpd7jYo-30" value="+ payment: Object" style="text;strokeColor=none;fillColor=none;align=left;verticalAlign=top;spacingLeft=4;spacingRight=4;overflow=hidden;rotatable=0;points=[[0,0.5],[1,0.5]];portConstraint=eastwest;fontColor=#E4FDE1;" parent="p3bBlaLwR1i7pQpd7jYo-6" vertex="1">
          <mxGeometry y="52" width="200" height="26" as="geometry" />
        </mxCell>
        <mxCell id="p3bBlaLwR1i7pQpd7jYo-8" value="+ identifier: Number " style="text;strokeColor=none;fillColor=none;align=left;verticalAlign=top;spacingLeft=4;spacingRight=4;overflow=hidden;rotatable=0;points=[[0,0.5],[1,0.5]];portConstraint=eastwest;fontColor=#E4FDE1;" parent="p3bBlaLwR1i7pQpd7jYo-6" vertex="1">
          <mxGeometry y="78" width="200" height="26" as="geometry" />
        </mxCell>
        <mxCell id="p3bBlaLwR1i7pQpd7jYo-9" value="+ name: String" style="text;strokeColor=none;fillColor=none;align=left;verticalAlign=top;spacingLeft=4;spacingRight=4;overflow=hidden;rotatable=0;points=[[0,0.5],[1,0.5]];portConstraint=eastwest;fontColor=#E4FDE1;" parent="p3bBlaLwR1i7pQpd7jYo-6" vertex="1">
          <mxGeometry y="104" width="200" height="26" as="geometry" />
        </mxCell>
        <mxCell id="p3bBlaLwR1i7pQpd7jYo-155" value="+ phone: String" style="text;strokeColor=none;fillColor=none;align=left;verticalAlign=top;spacingLeft=4;spacingRight=4;overflow=hidden;rotatable=0;points=[[0,0.5],[1,0.5]];portConstraint=eastwest;fontColor=#E4FDE1;" parent="p3bBlaLwR1i7pQpd7jYo-6" vertex="1">
          <mxGeometry y="130" width="200" height="26" as="geometry" />
        </mxCell>
        <mxCell id="p3bBlaLwR1i7pQpd7jYo-156" value="+ email: String" style="text;strokeColor=none;fillColor=none;align=left;verticalAlign=top;spacingLeft=4;spacingRight=4;overflow=hidden;rotatable=0;points=[[0,0.5],[1,0.5]];portConstraint=eastwest;fontColor=#E4FDE1;" parent="p3bBlaLwR1i7pQpd7jYo-6" vertex="1">
          <mxGeometry y="156" width="200" height="26" as="geometry" />
        </mxCell>
        <mxCell id="p3bBlaLwR1i7pQpd7jYo-26" value="+ attracted: String" style="text;strokeColor=none;fillColor=none;align=left;verticalAlign=top;spacingLeft=4;spacingRight=4;overflow=hidden;rotatable=0;points=[[0,0.5],[1,0.5]];portConstraint=eastwest;fontColor=#E4FDE1;" parent="p3bBlaLwR1i7pQpd7jYo-6" vertex="1">
          <mxGeometry y="182" width="200" height="26" as="geometry" />
        </mxCell>
        <mxCell id="p3bBlaLwR1i7pQpd7jYo-39" value="+ rate: Number" style="text;strokeColor=none;fillColor=none;align=left;verticalAlign=top;spacingLeft=4;spacingRight=4;overflow=hidden;rotatable=0;points=[[0,0.5],[1,0.5]];portConstraint=eastwest;fontColor=#E4FDE1;" parent="p3bBlaLwR1i7pQpd7jYo-6" vertex="1">
          <mxGeometry y="208" width="200" height="26" as="geometry" />
        </mxCell>
        <mxCell id="p3bBlaLwR1i7pQpd7jYo-27" value="+ discount: Number" style="text;strokeColor=none;fillColor=none;align=left;verticalAlign=top;spacingLeft=4;spacingRight=4;overflow=hidden;rotatable=0;points=[[0,0.5],[1,0.5]];portConstraint=eastwest;fontColor=#E4FDE1;" parent="p3bBlaLwR1i7pQpd7jYo-6" vertex="1">
          <mxGeometry y="234" width="200" height="26" as="geometry" />
        </mxCell>
        <mxCell id="p3bBlaLwR1i7pQpd7jYo-42" value="+ free: Object " style="text;strokeColor=none;fillColor=none;align=left;verticalAlign=top;spacingLeft=4;spacingRight=4;overflow=hidden;rotatable=0;points=[[0,0.5],[1,0.5]];portConstraint=eastwest;fontColor=#E4FDE1;" parent="p3bBlaLwR1i7pQpd7jYo-6" vertex="1">
          <mxGeometry y="260" width="200" height="26" as="geometry" />
        </mxCell>
        <mxCell id="p3bBlaLwR1i7pQpd7jYo-72" value="+ addresses: ObjectId" style="text;strokeColor=none;fillColor=none;align=left;verticalAlign=top;spacingLeft=4;spacingRight=4;overflow=hidden;rotatable=0;points=[[0,0.5],[1,0.5]];portConstraint=eastwest;fontColor=#E4FDE1;" parent="p3bBlaLwR1i7pQpd7jYo-6" vertex="1">
          <mxGeometry y="286" width="200" height="26" as="geometry" />
        </mxCell>
        <mxCell id="p3bBlaLwR1i7pQpd7jYo-41" value="+ food: Boolean" style="text;strokeColor=none;fillColor=none;align=left;verticalAlign=top;spacingLeft=4;spacingRight=4;overflow=hidden;rotatable=0;points=[[0,0.5],[1,0.5]];portConstraint=eastwest;fontColor=#E4FDE1;" parent="p3bBlaLwR1i7pQpd7jYo-6" vertex="1">
          <mxGeometry y="312" width="200" height="26" as="geometry" />
        </mxCell>
        <mxCell id="p3bBlaLwR1i7pQpd7jYo-25" value="+ isPriorityDelivery: Boolean" style="text;strokeColor=none;fillColor=none;align=left;verticalAlign=top;spacingLeft=4;spacingRight=4;overflow=hidden;rotatable=0;points=[[0,0.5],[1,0.5]];portConstraint=eastwest;fontColor=#E4FDE1;" parent="p3bBlaLwR1i7pQpd7jYo-6" vertex="1">
          <mxGeometry y="338" width="200" height="26" as="geometry" />
        </mxCell>
        <mxCell id="p3bBlaLwR1i7pQpd7jYo-56" value="+ isStoppedDelivery: Boolean" style="text;strokeColor=none;fillColor=none;align=left;verticalAlign=top;spacingLeft=4;spacingRight=4;overflow=hidden;rotatable=0;points=[[0,0.5],[1,0.5]];portConstraint=eastwest;fontColor=#E4FDE1;" parent="p3bBlaLwR1i7pQpd7jYo-6" vertex="1">
          <mxGeometry y="364" width="200" height="26" as="geometry" />
        </mxCell>
        <mxCell id="p3bBlaLwR1i7pQpd7jYo-59" value="+ automated: Object" style="text;strokeColor=none;fillColor=none;align=left;verticalAlign=top;spacingLeft=4;spacingRight=4;overflow=hidden;rotatable=0;points=[[0,0.5],[1,0.5]];portConstraint=eastwest;fontColor=#E4FDE1;" parent="p3bBlaLwR1i7pQpd7jYo-6" vertex="1">
          <mxGeometry y="390" width="200" height="26" as="geometry" />
        </mxCell>
        <mxCell id="p3bBlaLwR1i7pQpd7jYo-73" value="+ orders: ObjectId" style="text;strokeColor=none;fillColor=none;align=left;verticalAlign=top;spacingLeft=4;spacingRight=4;overflow=hidden;rotatable=0;points=[[0,0.5],[1,0.5]];portConstraint=eastwest;fontColor=#E4FDE1;" parent="p3bBlaLwR1i7pQpd7jYo-6" vertex="1">
          <mxGeometry y="416" width="200" height="26" as="geometry" />
        </mxCell>
        <mxCell id="p3bBlaLwR1i7pQpd7jYo-60" value="automated" style="swimlane;fontStyle=0;childLayout=stackLayout;horizontal=1;startSize=26;horizontalStack=0;resizeParent=1;resizeParentMax=0;resizeLast=0;collapsible=1;marginBottom=0;strokeColor=#028090;fontColor=#E4FDE1;fillColor=#625DF4;" parent="WIyWlLk6GJQsqaUBKTNV-1" vertex="1">
          <mxGeometry x="40" y="352" width="160" height="78" as="geometry" />
        </mxCell>
        <mxCell id="p3bBlaLwR1i7pQpd7jYo-61" value="+ alwaysIn: Boolean " style="text;strokeColor=none;align=left;verticalAlign=top;spacingLeft=4;spacingRight=4;overflow=hidden;rotatable=0;points=[[0,0.5],[1,0.5]];portConstraint=eastwest;fontColor=#E4FDE1;" parent="p3bBlaLwR1i7pQpd7jYo-60" vertex="1">
          <mxGeometry y="26" width="160" height="26" as="geometry" />
        </mxCell>
        <mxCell id="p3bBlaLwR1i7pQpd7jYo-62" value="+ alwaysOut: Boolean" style="text;strokeColor=none;fillColor=none;align=left;verticalAlign=top;spacingLeft=4;spacingRight=4;overflow=hidden;rotatable=0;points=[[0,0.5],[1,0.5]];portConstraint=eastwest;fontColor=#E4FDE1;" parent="p3bBlaLwR1i7pQpd7jYo-60" vertex="1">
          <mxGeometry y="52" width="160" height="26" as="geometry" />
        </mxCell>
        <mxCell id="p3bBlaLwR1i7pQpd7jYo-43" value="free" style="swimlane;fontStyle=0;childLayout=stackLayout;horizontal=1;startSize=26;horizontalStack=0;resizeParent=1;resizeParentMax=0;resizeLast=0;collapsible=1;marginBottom=0;strokeColor=#028090;fontColor=#E4FDE1;fillColor=#625DF4;" parent="WIyWlLk6GJQsqaUBKTNV-1" vertex="1">
          <mxGeometry x="40" y="170" width="160" height="156" as="geometry" />
        </mxCell>
        <mxCell id="p3bBlaLwR1i7pQpd7jYo-47" value="+ in: Boolean" style="text;strokeColor=none;fillColor=none;align=left;verticalAlign=top;spacingLeft=4;spacingRight=4;overflow=hidden;rotatable=0;points=[[0,0.5],[1,0.5]];portConstraint=eastwest;fontColor=#E4FDE1;" parent="p3bBlaLwR1i7pQpd7jYo-43" vertex="1">
          <mxGeometry y="26" width="160" height="26" as="geometry" />
        </mxCell>
        <mxCell id="p3bBlaLwR1i7pQpd7jYo-48" value="+ out: Boolean" style="text;strokeColor=none;fillColor=none;align=left;verticalAlign=top;spacingLeft=4;spacingRight=4;overflow=hidden;rotatable=0;points=[[0,0.5],[1,0.5]];portConstraint=eastwest;fontColor=#E4FDE1;" parent="p3bBlaLwR1i7pQpd7jYo-43" vertex="1">
          <mxGeometry y="52" width="160" height="26" as="geometry" />
        </mxCell>
        <mxCell id="p3bBlaLwR1i7pQpd7jYo-50" value="+ buyin: Boolean" style="text;strokeColor=none;fillColor=none;align=left;verticalAlign=top;spacingLeft=4;spacingRight=4;overflow=hidden;rotatable=0;points=[[0,0.5],[1,0.5]];portConstraint=eastwest;fontColor=#E4FDE1;" parent="p3bBlaLwR1i7pQpd7jYo-43" vertex="1">
          <mxGeometry y="78" width="160" height="26" as="geometry" />
        </mxCell>
        <mxCell id="p3bBlaLwR1i7pQpd7jYo-49" value="+ buyout: Boolean" style="text;strokeColor=none;fillColor=none;align=left;verticalAlign=top;spacingLeft=4;spacingRight=4;overflow=hidden;rotatable=0;points=[[0,0.5],[1,0.5]];portConstraint=eastwest;fontColor=#E4FDE1;" parent="p3bBlaLwR1i7pQpd7jYo-43" vertex="1">
          <mxGeometry y="104" width="160" height="26" as="geometry" />
        </mxCell>
        <mxCell id="p3bBlaLwR1i7pQpd7jYo-44" value="+ extraPoint: Boolean" style="text;strokeColor=none;fillColor=none;align=left;verticalAlign=top;spacingLeft=4;spacingRight=4;overflow=hidden;rotatable=0;points=[[0,0.5],[1,0.5]];portConstraint=eastwest;fontColor=#E4FDE1;" parent="p3bBlaLwR1i7pQpd7jYo-43" vertex="1">
          <mxGeometry y="130" width="160" height="26" as="geometry" />
        </mxCell>
        <mxCell id="p3bBlaLwR1i7pQpd7jYo-33" value="payment" style="swimlane;fontStyle=0;childLayout=stackLayout;horizontal=1;startSize=26;horizontalStack=0;resizeParent=1;resizeParentMax=0;resizeLast=0;collapsible=1;marginBottom=0;strokeColor=#028090;fontColor=#E4FDE1;fillColor=#625DF4;" parent="WIyWlLk6GJQsqaUBKTNV-1" vertex="1">
          <mxGeometry x="40" y="40" width="160" height="104" as="geometry" />
        </mxCell>
        <mxCell id="p3bBlaLwR1i7pQpd7jYo-34" value="+ form: String " style="text;strokeColor=none;fillColor=none;align=left;verticalAlign=top;spacingLeft=4;spacingRight=4;overflow=hidden;rotatable=0;points=[[0,0.5],[1,0.5]];portConstraint=eastwest;fontColor=#E4FDE1;" parent="p3bBlaLwR1i7pQpd7jYo-33" vertex="1">
          <mxGeometry y="26" width="160" height="26" as="geometry" />
        </mxCell>
        <mxCell id="p3bBlaLwR1i7pQpd7jYo-40" value="+ type: String" style="text;strokeColor=none;fillColor=none;align=left;verticalAlign=top;spacingLeft=4;spacingRight=4;overflow=hidden;rotatable=0;points=[[0,0.5],[1,0.5]];portConstraint=eastwest;fontColor=#E4FDE1;" parent="p3bBlaLwR1i7pQpd7jYo-33" vertex="1">
          <mxGeometry y="52" width="160" height="26" as="geometry" />
        </mxCell>
        <mxCell id="p3bBlaLwR1i7pQpd7jYo-35" value="+ pays: String" style="text;strokeColor=none;fillColor=none;align=left;verticalAlign=top;spacingLeft=4;spacingRight=4;overflow=hidden;rotatable=0;points=[[0,0.5],[1,0.5]];portConstraint=eastwest;fontColor=#E4FDE1;" parent="p3bBlaLwR1i7pQpd7jYo-33" vertex="1">
          <mxGeometry y="78" width="160" height="26" as="geometry" />
        </mxCell>
        <mxCell id="p3bBlaLwR1i7pQpd7jYo-10" value="ClientAddresses" style="swimlane;fontStyle=0;childLayout=stackLayout;horizontal=1;startSize=26;fillColor=#F45B69;horizontalStack=0;resizeParent=1;resizeParentMax=0;resizeLast=0;collapsible=1;marginBottom=0;strokeColor=#028090;fontColor=#E4FDE1;" parent="WIyWlLk6GJQsqaUBKTNV-1" vertex="1">
          <mxGeometry x="480" y="222" width="200" height="78" as="geometry" />
        </mxCell>
        <mxCell id="p3bBlaLwR1i7pQpd7jYo-11" value="+ _id: ObjectId" style="text;strokeColor=none;fillColor=none;align=left;verticalAlign=top;spacingLeft=4;spacingRight=4;overflow=hidden;rotatable=0;points=[[0,0.5],[1,0.5]];portConstraint=eastwest;fontColor=#E4FDE1;" parent="p3bBlaLwR1i7pQpd7jYo-10" vertex="1">
          <mxGeometry y="26" width="200" height="26" as="geometry" />
        </mxCell>
        <mxCell id="p3bBlaLwR1i7pQpd7jYo-13" value="+ addresses: Array&lt;clientAddress&gt;" style="text;strokeColor=none;fillColor=none;align=left;verticalAlign=top;spacingLeft=4;spacingRight=4;overflow=hidden;rotatable=0;points=[[0,0.5],[1,0.5]];portConstraint=eastwest;fontColor=#E4FDE1;" parent="p3bBlaLwR1i7pQpd7jYo-10" vertex="1">
          <mxGeometry y="52" width="200" height="26" as="geometry" />
        </mxCell>
        <mxCell id="p3bBlaLwR1i7pQpd7jYo-65" value="ClientOrders" style="swimlane;fontStyle=0;childLayout=stackLayout;horizontal=1;startSize=26;fillColor=#F45B69;horizontalStack=0;resizeParent=1;resizeParentMax=0;resizeLast=0;collapsible=1;marginBottom=0;strokeColor=#028090;fontColor=#E4FDE1;" parent="WIyWlLk6GJQsqaUBKTNV-1" vertex="1">
          <mxGeometry x="480" y="352" width="200" height="78" as="geometry" />
        </mxCell>
        <mxCell id="p3bBlaLwR1i7pQpd7jYo-66" value="+ _id: ObjectId" style="text;strokeColor=none;fillColor=none;align=left;verticalAlign=top;spacingLeft=4;spacingRight=4;overflow=hidden;rotatable=0;points=[[0,0.5],[1,0.5]];portConstraint=eastwest;fontColor=#E4FDE1;" parent="p3bBlaLwR1i7pQpd7jYo-65" vertex="1">
          <mxGeometry y="26" width="200" height="26" as="geometry" />
        </mxCell>
        <mxCell id="p3bBlaLwR1i7pQpd7jYo-68" value="+ orders: Array&lt;clientOrder&gt;" style="text;strokeColor=none;fillColor=none;align=left;verticalAlign=top;spacingLeft=4;spacingRight=4;overflow=hidden;rotatable=0;points=[[0,0.5],[1,0.5]];portConstraint=eastwest;fontColor=#E4FDE1;" parent="p3bBlaLwR1i7pQpd7jYo-65" vertex="1">
          <mxGeometry y="52" width="200" height="26" as="geometry" />
        </mxCell>
        <mxCell id="p3bBlaLwR1i7pQpd7jYo-80" value="clientAddress" style="swimlane;fontStyle=0;childLayout=stackLayout;horizontal=1;startSize=26;horizontalStack=0;resizeParent=1;resizeParentMax=0;resizeLast=0;collapsible=1;marginBottom=0;strokeColor=#028090;fontColor=#E4FDE1;fillColor=#625DF4;" parent="WIyWlLk6GJQsqaUBKTNV-1" vertex="1">
          <mxGeometry x="720" y="170" width="200" height="156" as="geometry" />
        </mxCell>
        <mxCell id="p3bBlaLwR1i7pQpd7jYo-81" value="+ name: String " style="text;strokeColor=none;fillColor=none;align=left;verticalAlign=top;spacingLeft=4;spacingRight=4;overflow=hidden;rotatable=0;points=[[0,0.5],[1,0.5]];portConstraint=eastwest;fontColor=#E4FDE1;" parent="p3bBlaLwR1i7pQpd7jYo-80" vertex="1">
          <mxGeometry y="26" width="200" height="26" as="geometry" />
        </mxCell>
        <mxCell id="p3bBlaLwR1i7pQpd7jYo-82" value="+ address: String" style="text;strokeColor=none;fillColor=none;align=left;verticalAlign=top;spacingLeft=4;spacingRight=4;overflow=hidden;rotatable=0;points=[[0,0.5],[1,0.5]];portConstraint=eastwest;fontColor=#E4FDE1;" parent="p3bBlaLwR1i7pQpd7jYo-80" vertex="1">
          <mxGeometry y="52" width="200" height="26" as="geometry" />
        </mxCell>
        <mxCell id="p3bBlaLwR1i7pQpd7jYo-84" value="+ lat: String || Number" style="text;strokeColor=none;fillColor=none;align=left;verticalAlign=top;spacingLeft=4;spacingRight=4;overflow=hidden;rotatable=0;points=[[0,0.5],[1,0.5]];portConstraint=eastwest;fontColor=#E4FDE1;" parent="p3bBlaLwR1i7pQpd7jYo-80" vertex="1">
          <mxGeometry y="78" width="200" height="26" as="geometry" />
        </mxCell>
        <mxCell id="p3bBlaLwR1i7pQpd7jYo-83" value="+ lon: String || Number" style="text;strokeColor=none;fillColor=none;align=left;verticalAlign=top;spacingLeft=4;spacingRight=4;overflow=hidden;rotatable=0;points=[[0,0.5],[1,0.5]];portConstraint=eastwest;fontColor=#E4FDE1;" parent="p3bBlaLwR1i7pQpd7jYo-80" vertex="1">
          <mxGeometry y="104" width="200" height="26" as="geometry" />
        </mxCell>
        <mxCell id="p3bBlaLwR1i7pQpd7jYo-85" value="+ fields: Object" style="text;strokeColor=none;fillColor=none;align=left;verticalAlign=top;spacingLeft=4;spacingRight=4;overflow=hidden;rotatable=0;points=[[0,0.5],[1,0.5]];portConstraint=eastwest;fontColor=#E4FDE1;" parent="p3bBlaLwR1i7pQpd7jYo-80" vertex="1">
          <mxGeometry y="130" width="200" height="26" as="geometry" />
        </mxCell>
        <mxCell id="p3bBlaLwR1i7pQpd7jYo-86" value="fields" style="swimlane;fontStyle=0;childLayout=stackLayout;horizontal=1;startSize=26;horizontalStack=0;resizeParent=1;resizeParentMax=0;resizeLast=0;collapsible=1;marginBottom=0;strokeColor=#028090;fontColor=#E4FDE1;fillColor=#625DF4;" parent="WIyWlLk6GJQsqaUBKTNV-1" vertex="1">
          <mxGeometry x="960" y="66" width="200" height="260" as="geometry" />
        </mxCell>
        <mxCell id="p3bBlaLwR1i7pQpd7jYo-87" value="+ bus: Boolean" style="text;strokeColor=none;align=left;verticalAlign=top;spacingLeft=4;spacingRight=4;overflow=hidden;rotatable=0;points=[[0,0.5],[1,0.5]];portConstraint=eastwest;fontColor=#E4FDE1;" parent="p3bBlaLwR1i7pQpd7jYo-86" vertex="1">
          <mxGeometry y="26" width="200" height="26" as="geometry" />
        </mxCell>
        <mxCell id="p3bBlaLwR1i7pQpd7jYo-88" value="+ takeIn: Boolean" style="text;strokeColor=none;fillColor=none;align=left;verticalAlign=top;spacingLeft=4;spacingRight=4;overflow=hidden;rotatable=0;points=[[0,0.5],[1,0.5]];portConstraint=eastwest;fontColor=#E4FDE1;" parent="p3bBlaLwR1i7pQpd7jYo-86" vertex="1">
          <mxGeometry y="52" width="200" height="26" as="geometry" />
        </mxCell>
        <mxCell id="p3bBlaLwR1i7pQpd7jYo-89" value="+ takeOut: Boolean" style="text;strokeColor=none;fillColor=none;align=left;verticalAlign=top;spacingLeft=4;spacingRight=4;overflow=hidden;rotatable=0;points=[[0,0.5],[1,0.5]];portConstraint=eastwest;fontColor=#E4FDE1;" parent="p3bBlaLwR1i7pQpd7jYo-86" vertex="1">
          <mxGeometry y="78" width="200" height="26" as="geometry" />
        </mxCell>
        <mxCell id="p3bBlaLwR1i7pQpd7jYo-90" value="+ buyin: Number" style="text;strokeColor=none;fillColor=none;align=left;verticalAlign=top;spacingLeft=4;spacingRight=4;overflow=hidden;rotatable=0;points=[[0,0.5],[1,0.5]];portConstraint=eastwest;fontColor=#E4FDE1;" parent="p3bBlaLwR1i7pQpd7jYo-86" vertex="1">
          <mxGeometry y="104" width="200" height="26" as="geometry" />
        </mxCell>
        <mxCell id="p3bBlaLwR1i7pQpd7jYo-91" value="+ buyout: Number" style="text;strokeColor=none;fillColor=none;align=left;verticalAlign=top;spacingLeft=4;spacingRight=4;overflow=hidden;rotatable=0;points=[[0,0.5],[1,0.5]];portConstraint=eastwest;fontColor=#E4FDE1;" parent="p3bBlaLwR1i7pQpd7jYo-86" vertex="1">
          <mxGeometry y="130" width="200" height="26" as="geometry" />
        </mxCell>
        <mxCell id="p3bBlaLwR1i7pQpd7jYo-92" value="+ bundles: Number" style="text;strokeColor=none;fillColor=none;align=left;verticalAlign=top;spacingLeft=4;spacingRight=4;overflow=hidden;rotatable=0;points=[[0,0.5],[1,0.5]];portConstraint=eastwest;fontColor=#E4FDE1;" parent="p3bBlaLwR1i7pQpd7jYo-86" vertex="1">
          <mxGeometry y="156" width="200" height="26" as="geometry" />
        </mxCell>
        <mxCell id="p3bBlaLwR1i7pQpd7jYo-93" value="+ datetime: String" style="text;strokeColor=none;fillColor=none;align=left;verticalAlign=top;spacingLeft=4;spacingRight=4;overflow=hidden;rotatable=0;points=[[0,0.5],[1,0.5]];portConstraint=eastwest;fontColor=#E4FDE1;" parent="p3bBlaLwR1i7pQpd7jYo-86" vertex="1">
          <mxGeometry y="182" width="200" height="26" as="geometry" />
        </mxCell>
        <mxCell id="p3bBlaLwR1i7pQpd7jYo-95" value="+ phone: String" style="text;strokeColor=none;fillColor=none;align=left;verticalAlign=top;spacingLeft=4;spacingRight=4;overflow=hidden;rotatable=0;points=[[0,0.5],[1,0.5]];portConstraint=eastwest;fontColor=#E4FDE1;" parent="p3bBlaLwR1i7pQpd7jYo-86" vertex="1">
          <mxGeometry y="208" width="200" height="26" as="geometry" />
        </mxCell>
        <mxCell id="p3bBlaLwR1i7pQpd7jYo-94" value="+ comment: String" style="text;strokeColor=none;fillColor=none;align=left;verticalAlign=top;spacingLeft=4;spacingRight=4;overflow=hidden;rotatable=0;points=[[0,0.5],[1,0.5]];portConstraint=eastwest;fontColor=#E4FDE1;" parent="p3bBlaLwR1i7pQpd7jYo-86" vertex="1">
          <mxGeometry y="234" width="200" height="26" as="geometry" />
        </mxCell>
        <mxCell id="p3bBlaLwR1i7pQpd7jYo-98" value="clientOrder" style="swimlane;fontStyle=0;childLayout=stackLayout;horizontal=1;startSize=26;horizontalStack=0;resizeParent=1;resizeParentMax=0;resizeLast=0;collapsible=1;marginBottom=0;strokeColor=#028090;fontColor=#E4FDE1;fillColor=#625DF4;" parent="WIyWlLk6GJQsqaUBKTNV-1" vertex="1">
          <mxGeometry x="720" y="352" width="200" height="130" as="geometry" />
        </mxCell>
        <mxCell id="p3bBlaLwR1i7pQpd7jYo-99" value="+ name: String " style="text;strokeColor=none;fillColor=none;align=left;verticalAlign=top;spacingLeft=4;spacingRight=4;overflow=hidden;rotatable=0;points=[[0,0.5],[1,0.5]];portConstraint=eastwest;fontColor=#E4FDE1;" parent="p3bBlaLwR1i7pQpd7jYo-98" vertex="1">
          <mxGeometry y="26" width="200" height="26" as="geometry" />
        </mxCell>
        <mxCell id="p3bBlaLwR1i7pQpd7jYo-100" value="+ route: Object" style="text;strokeColor=none;fillColor=none;align=left;verticalAlign=top;spacingLeft=4;spacingRight=4;overflow=hidden;rotatable=0;points=[[0,0.5],[1,0.5]];portConstraint=eastwest;fontColor=#E4FDE1;" parent="p3bBlaLwR1i7pQpd7jYo-98" vertex="1">
          <mxGeometry y="52" width="200" height="26" as="geometry" />
        </mxCell>
        <mxCell id="p3bBlaLwR1i7pQpd7jYo-101" value="+ addresses: Array&lt;address&gt;" style="text;strokeColor=none;fillColor=none;align=left;verticalAlign=top;spacingLeft=4;spacingRight=4;overflow=hidden;rotatable=0;points=[[0,0.5],[1,0.5]];portConstraint=eastwest;fontColor=#E4FDE1;" parent="p3bBlaLwR1i7pQpd7jYo-98" vertex="1">
          <mxGeometry y="78" width="200" height="26" as="geometry" />
        </mxCell>
        <mxCell id="p3bBlaLwR1i7pQpd7jYo-103" value="+ info: Object" style="text;strokeColor=none;fillColor=none;align=left;verticalAlign=top;spacingLeft=4;spacingRight=4;overflow=hidden;rotatable=0;points=[[0,0.5],[1,0.5]];portConstraint=eastwest;fontColor=#E4FDE1;" parent="p3bBlaLwR1i7pQpd7jYo-98" vertex="1">
          <mxGeometry y="104" width="200" height="26" as="geometry" />
        </mxCell>
        <mxCell id="p3bBlaLwR1i7pQpd7jYo-104" value="route" style="swimlane;fontStyle=0;childLayout=stackLayout;horizontal=1;startSize=26;horizontalStack=0;resizeParent=1;resizeParentMax=0;resizeLast=0;collapsible=1;marginBottom=0;strokeColor=#028090;fontColor=#E4FDE1;fillColor=#625DF4;" parent="WIyWlLk6GJQsqaUBKTNV-1" vertex="1">
          <mxGeometry x="961" y="352" width="200" height="130" as="geometry" />
        </mxCell>
        <mxCell id="p3bBlaLwR1i7pQpd7jYo-105" value="+ routes: Array&lt;clientOrderRoute&gt; " style="text;strokeColor=none;fillColor=none;align=left;verticalAlign=top;spacingLeft=4;spacingRight=4;overflow=hidden;rotatable=0;points=[[0,0.5],[1,0.5]];portConstraint=eastwest;fontColor=#E4FDE1;" parent="p3bBlaLwR1i7pQpd7jYo-104" vertex="1">
          <mxGeometry y="26" width="200" height="26" as="geometry" />
        </mxCell>
        <mxCell id="p3bBlaLwR1i7pQpd7jYo-106" value="+ overallTime: Number" style="text;strokeColor=none;fillColor=none;align=left;verticalAlign=top;spacingLeft=4;spacingRight=4;overflow=hidden;rotatable=0;points=[[0,0.5],[1,0.5]];portConstraint=eastwest;fontColor=#E4FDE1;" parent="p3bBlaLwR1i7pQpd7jYo-104" vertex="1">
          <mxGeometry y="52" width="200" height="26" as="geometry" />
        </mxCell>
        <mxCell id="p3bBlaLwR1i7pQpd7jYo-108" value="+ overallDistance: Number" style="text;strokeColor=none;fillColor=none;align=left;verticalAlign=top;spacingLeft=4;spacingRight=4;overflow=hidden;rotatable=0;points=[[0,0.5],[1,0.5]];portConstraint=eastwest;fontColor=#E4FDE1;" parent="p3bBlaLwR1i7pQpd7jYo-104" vertex="1">
          <mxGeometry y="78" width="200" height="26" as="geometry" />
        </mxCell>
        <mxCell id="p3bBlaLwR1i7pQpd7jYo-107" value="+ overallTimeString: String" style="text;strokeColor=none;fillColor=none;align=left;verticalAlign=top;spacingLeft=4;spacingRight=4;overflow=hidden;rotatable=0;points=[[0,0.5],[1,0.5]];portConstraint=eastwest;fontColor=#E4FDE1;" parent="p3bBlaLwR1i7pQpd7jYo-104" vertex="1">
          <mxGeometry y="104" width="200" height="26" as="geometry" />
        </mxCell>
        <mxCell id="p3bBlaLwR1i7pQpd7jYo-109" value="clientOrderRoute" style="swimlane;fontStyle=0;childLayout=stackLayout;horizontal=1;startSize=26;horizontalStack=0;resizeParent=1;resizeParentMax=0;resizeLast=0;collapsible=1;marginBottom=0;strokeColor=#028090;fontColor=#E4FDE1;fillColor=#625DF4;" parent="WIyWlLk6GJQsqaUBKTNV-1" vertex="1">
          <mxGeometry x="1200" y="352" width="160" height="156" as="geometry" />
        </mxCell>
        <mxCell id="p3bBlaLwR1i7pQpd7jYo-110" value="+ to: String" style="text;strokeColor=none;fillColor=none;align=left;verticalAlign=top;spacingLeft=4;spacingRight=4;overflow=hidden;rotatable=0;points=[[0,0.5],[1,0.5]];portConstraint=eastwest;fontColor=#E4FDE1;" parent="p3bBlaLwR1i7pQpd7jYo-109" vertex="1">
          <mxGeometry y="26" width="160" height="26" as="geometry" />
        </mxCell>
        <mxCell id="p3bBlaLwR1i7pQpd7jYo-111" value="+ from: String" style="text;strokeColor=none;fillColor=none;align=left;verticalAlign=top;spacingLeft=4;spacingRight=4;overflow=hidden;rotatable=0;points=[[0,0.5],[1,0.5]];portConstraint=eastwest;fontColor=#E4FDE1;" parent="p3bBlaLwR1i7pQpd7jYo-109" vertex="1">
          <mxGeometry y="52" width="160" height="26" as="geometry" />
        </mxCell>
        <mxCell id="p3bBlaLwR1i7pQpd7jYo-113" value="+ distance: String" style="text;strokeColor=none;fillColor=none;align=left;verticalAlign=top;spacingLeft=4;spacingRight=4;overflow=hidden;rotatable=0;points=[[0,0.5],[1,0.5]];portConstraint=eastwest;fontColor=#E4FDE1;" parent="p3bBlaLwR1i7pQpd7jYo-109" vertex="1">
          <mxGeometry y="78" width="160" height="26" as="geometry" />
        </mxCell>
        <mxCell id="p3bBlaLwR1i7pQpd7jYo-112" value="+ time: Number" style="text;strokeColor=none;fillColor=none;align=left;verticalAlign=top;spacingLeft=4;spacingRight=4;overflow=hidden;rotatable=0;points=[[0,0.5],[1,0.5]];portConstraint=eastwest;fontColor=#E4FDE1;" parent="p3bBlaLwR1i7pQpd7jYo-109" vertex="1">
          <mxGeometry y="104" width="160" height="26" as="geometry" />
        </mxCell>
        <mxCell id="p3bBlaLwR1i7pQpd7jYo-114" value="+ timeString: String" style="text;strokeColor=none;fillColor=none;align=left;verticalAlign=top;spacingLeft=4;spacingRight=4;overflow=hidden;rotatable=0;points=[[0,0.5],[1,0.5]];portConstraint=eastwest;fontColor=#E4FDE1;" parent="p3bBlaLwR1i7pQpd7jYo-109" vertex="1">
          <mxGeometry y="130" width="160" height="26" as="geometry" />
        </mxCell>
        <mxCell id="p3bBlaLwR1i7pQpd7jYo-124" value="address" style="swimlane;fontStyle=0;childLayout=stackLayout;horizontal=1;startSize=26;horizontalStack=0;resizeParent=1;resizeParentMax=0;resizeLast=0;collapsible=1;marginBottom=0;strokeColor=#028090;fontColor=#E4FDE1;fillColor=#625DF4;" parent="WIyWlLk6GJQsqaUBKTNV-1" vertex="1">
          <mxGeometry x="961" y="520" width="199" height="234" as="geometry" />
        </mxCell>
        <mxCell id="p3bBlaLwR1i7pQpd7jYo-142" value="+ id: Number" style="text;strokeColor=none;fillColor=none;align=left;verticalAlign=top;spacingLeft=4;spacingRight=4;overflow=hidden;rotatable=0;points=[[0,0.5],[1,0.5]];portConstraint=eastwest;fontColor=#E4FDE1;" parent="p3bBlaLwR1i7pQpd7jYo-124" vertex="1">
          <mxGeometry y="26" width="199" height="26" as="geometry" />
        </mxCell>
        <mxCell id="p3bBlaLwR1i7pQpd7jYo-125" value="+ name: String " style="text;strokeColor=none;fillColor=none;align=left;verticalAlign=top;spacingLeft=4;spacingRight=4;overflow=hidden;rotatable=0;points=[[0,0.5],[1,0.5]];portConstraint=eastwest;fontColor=#E4FDE1;" parent="p3bBlaLwR1i7pQpd7jYo-124" vertex="1">
          <mxGeometry y="52" width="199" height="26" as="geometry" />
        </mxCell>
        <mxCell id="p3bBlaLwR1i7pQpd7jYo-126" value="+ address: String" style="text;strokeColor=none;fillColor=none;align=left;verticalAlign=top;spacingLeft=4;spacingRight=4;overflow=hidden;rotatable=0;points=[[0,0.5],[1,0.5]];portConstraint=eastwest;fontColor=#E4FDE1;" parent="p3bBlaLwR1i7pQpd7jYo-124" vertex="1">
          <mxGeometry y="78" width="199" height="26" as="geometry" />
        </mxCell>
        <mxCell id="p3bBlaLwR1i7pQpd7jYo-127" value="+ lat: String || Number" style="text;strokeColor=none;fillColor=none;align=left;verticalAlign=top;spacingLeft=4;spacingRight=4;overflow=hidden;rotatable=0;points=[[0,0.5],[1,0.5]];portConstraint=eastwest;fontColor=#E4FDE1;" parent="p3bBlaLwR1i7pQpd7jYo-124" vertex="1">
          <mxGeometry y="104" width="199" height="26" as="geometry" />
        </mxCell>
        <mxCell id="p3bBlaLwR1i7pQpd7jYo-128" value="+ lon: String || Number" style="text;strokeColor=none;fillColor=none;align=left;verticalAlign=top;spacingLeft=4;spacingRight=4;overflow=hidden;rotatable=0;points=[[0,0.5],[1,0.5]];portConstraint=eastwest;fontColor=#E4FDE1;" parent="p3bBlaLwR1i7pQpd7jYo-124" vertex="1">
          <mxGeometry y="130" width="199" height="26" as="geometry" />
        </mxCell>
        <mxCell id="p3bBlaLwR1i7pQpd7jYo-129" value="+ fields: Object" style="text;strokeColor=none;fillColor=none;align=left;verticalAlign=top;spacingLeft=4;spacingRight=4;overflow=hidden;rotatable=0;points=[[0,0.5],[1,0.5]];portConstraint=eastwest;fontColor=#E4FDE1;" parent="p3bBlaLwR1i7pQpd7jYo-124" vertex="1">
          <mxGeometry y="156" width="199" height="26" as="geometry" />
        </mxCell>
        <mxCell id="p3bBlaLwR1i7pQpd7jYo-140" value="+ isAlias: Boolean" style="text;strokeColor=none;fillColor=none;align=left;verticalAlign=top;spacingLeft=4;spacingRight=4;overflow=hidden;rotatable=0;points=[[0,0.5],[1,0.5]];portConstraint=eastwest;fontColor=#E4FDE1;" parent="p3bBlaLwR1i7pQpd7jYo-124" vertex="1">
          <mxGeometry y="182" width="199" height="26" as="geometry" />
        </mxCell>
        <mxCell id="p3bBlaLwR1i7pQpd7jYo-141" value="+ completed: Boolean" style="text;strokeColor=none;fillColor=none;align=left;verticalAlign=top;spacingLeft=4;spacingRight=4;overflow=hidden;rotatable=0;points=[[0,0.5],[1,0.5]];portConstraint=eastwest;fontColor=#E4FDE1;" parent="p3bBlaLwR1i7pQpd7jYo-124" vertex="1">
          <mxGeometry y="208" width="199" height="26" as="geometry" />
        </mxCell>
        <mxCell id="p3bBlaLwR1i7pQpd7jYo-118" value="info" style="swimlane;fontStyle=0;childLayout=stackLayout;horizontal=1;startSize=26;horizontalStack=0;resizeParent=1;resizeParentMax=0;resizeLast=0;collapsible=1;marginBottom=0;strokeColor=#028090;fontColor=#E4FDE1;fillColor=#625DF4;" parent="WIyWlLk6GJQsqaUBKTNV-1" vertex="1">
          <mxGeometry x="960" y="800" width="200" height="156" as="geometry" />
        </mxCell>
        <mxCell id="p3bBlaLwR1i7pQpd7jYo-119" value="+ car: Boolean" style="text;strokeColor=none;fillColor=none;align=left;verticalAlign=top;spacingLeft=4;spacingRight=4;overflow=hidden;rotatable=0;points=[[0,0.5],[1,0.5]];portConstraint=eastwest;fontColor=#E4FDE1;" parent="p3bBlaLwR1i7pQpd7jYo-118" vertex="1">
          <mxGeometry y="26" width="200" height="26" as="geometry" />
        </mxCell>
        <mxCell id="p3bBlaLwR1i7pQpd7jYo-122" value="+ quick: Boolean" style="text;strokeColor=none;fillColor=none;align=left;verticalAlign=top;spacingLeft=4;spacingRight=4;overflow=hidden;rotatable=0;points=[[0,0.5],[1,0.5]];portConstraint=eastwest;fontColor=#E4FDE1;" parent="p3bBlaLwR1i7pQpd7jYo-118" vertex="1">
          <mxGeometry y="52" width="200" height="26" as="geometry" />
        </mxCell>
        <mxCell id="p3bBlaLwR1i7pQpd7jYo-123" value="+ optimizeRoute: Boolean" style="text;strokeColor=none;fillColor=none;align=left;verticalAlign=top;spacingLeft=4;spacingRight=4;overflow=hidden;rotatable=0;points=[[0,0.5],[1,0.5]];portConstraint=eastwest;fontColor=#E4FDE1;" parent="p3bBlaLwR1i7pQpd7jYo-118" vertex="1">
          <mxGeometry y="78" width="200" height="26" as="geometry" />
        </mxCell>
        <mxCell id="p3bBlaLwR1i7pQpd7jYo-120" value="+ comment: String" style="text;strokeColor=none;fillColor=none;align=left;verticalAlign=top;spacingLeft=4;spacingRight=4;overflow=hidden;rotatable=0;points=[[0,0.5],[1,0.5]];portConstraint=eastwest;fontColor=#E4FDE1;" parent="p3bBlaLwR1i7pQpd7jYo-118" vertex="1">
          <mxGeometry y="104" width="200" height="26" as="geometry" />
        </mxCell>
        <mxCell id="p3bBlaLwR1i7pQpd7jYo-121" value="+ whoPays: String" style="text;strokeColor=none;fillColor=none;align=left;verticalAlign=top;spacingLeft=4;spacingRight=4;overflow=hidden;rotatable=0;points=[[0,0.5],[1,0.5]];portConstraint=eastwest;fontColor=#E4FDE1;" parent="p3bBlaLwR1i7pQpd7jYo-118" vertex="1">
          <mxGeometry y="130" width="200" height="26" as="geometry" />
        </mxCell>
        <mxCell id="p3bBlaLwR1i7pQpd7jYo-1" value="User" style="swimlane;fontStyle=0;childLayout=stackLayout;horizontal=1;startSize=26;fillColor=#F45B69;horizontalStack=0;resizeParent=1;resizeParentMax=0;resizeLast=0;collapsible=1;marginBottom=0;strokeColor=#028090;fontColor=#E4FDE1;" parent="WIyWlLk6GJQsqaUBKTNV-1" vertex="1">
          <mxGeometry x="240" y="520" width="200" height="234" as="geometry" />
        </mxCell>
        <mxCell id="p3bBlaLwR1i7pQpd7jYo-2" value="+ _id: ObjectID" style="text;strokeColor=none;fillColor=none;align=left;verticalAlign=top;spacingLeft=4;spacingRight=4;overflow=hidden;rotatable=0;points=[[0,0.5],[1,0.5]];portConstraint=eastwest;fontColor=#E4FDE1;" parent="p3bBlaLwR1i7pQpd7jYo-1" vertex="1">
          <mxGeometry y="26" width="200" height="26" as="geometry" />
        </mxCell>
        <mxCell id="p3bBlaLwR1i7pQpd7jYo-3" value="+ login: String" style="text;strokeColor=none;fillColor=none;align=left;verticalAlign=top;spacingLeft=4;spacingRight=4;overflow=hidden;rotatable=0;points=[[0,0.5],[1,0.5]];portConstraint=eastwest;fontColor=#E4FDE1;dashed=1;" parent="p3bBlaLwR1i7pQpd7jYo-1" vertex="1">
          <mxGeometry y="52" width="200" height="26" as="geometry" />
        </mxCell>
        <mxCell id="p3bBlaLwR1i7pQpd7jYo-4" value="+ password: String" style="text;strokeColor=none;fillColor=none;align=left;verticalAlign=top;spacingLeft=4;spacingRight=4;overflow=hidden;rotatable=0;points=[[0,0.5],[1,0.5]];portConstraint=eastwest;fontColor=#E4FDE1;" parent="p3bBlaLwR1i7pQpd7jYo-1" vertex="1">
          <mxGeometry y="78" width="200" height="26" as="geometry" />
        </mxCell>
        <mxCell id="p3bBlaLwR1i7pQpd7jYo-51" value="+ defaultPassword: String" style="text;strokeColor=none;fillColor=none;align=left;verticalAlign=top;spacingLeft=4;spacingRight=4;overflow=hidden;rotatable=0;points=[[0,0.5],[1,0.5]];portConstraint=eastwest;fontColor=#E4FDE1;" parent="p3bBlaLwR1i7pQpd7jYo-1" vertex="1">
          <mxGeometry y="104" width="200" height="26" as="geometry" />
        </mxCell>
        <mxCell id="p3bBlaLwR1i7pQpd7jYo-5" value="+ jwt: String" style="text;strokeColor=none;fillColor=none;align=left;verticalAlign=top;spacingLeft=4;spacingRight=4;overflow=hidden;rotatable=0;points=[[0,0.5],[1,0.5]];portConstraint=eastwest;fontColor=#E4FDE1;" parent="p3bBlaLwR1i7pQpd7jYo-1" vertex="1">
          <mxGeometry y="130" width="200" height="26" as="geometry" />
        </mxCell>
        <mxCell id="p3bBlaLwR1i7pQpd7jYo-58" value="+ region: String" style="text;strokeColor=none;fillColor=none;align=left;verticalAlign=top;spacingLeft=4;spacingRight=4;overflow=hidden;rotatable=0;points=[[0,0.5],[1,0.5]];portConstraint=eastwest;fontColor=#E4FDE1;" parent="p3bBlaLwR1i7pQpd7jYo-1" vertex="1">
          <mxGeometry y="156" width="200" height="26" as="geometry" />
        </mxCell>
        <mxCell id="p3bBlaLwR1i7pQpd7jYo-24" value="+ permissions: Object" style="text;strokeColor=none;fillColor=none;align=left;verticalAlign=top;spacingLeft=4;spacingRight=4;overflow=hidden;rotatable=0;points=[[0,0.5],[1,0.5]];portConstraint=eastwest;fontColor=#E4FDE1;" parent="p3bBlaLwR1i7pQpd7jYo-1" vertex="1">
          <mxGeometry y="182" width="200" height="26" as="geometry" />
        </mxCell>
        <mxCell id="p3bBlaLwR1i7pQpd7jYo-146" value="+ linked: ObjectID" style="text;strokeColor=none;fillColor=none;align=left;verticalAlign=top;spacingLeft=4;spacingRight=4;overflow=hidden;rotatable=0;points=[[0,0.5],[1,0.5]];portConstraint=eastwest;fontColor=#E4FDE1;" parent="p3bBlaLwR1i7pQpd7jYo-1" vertex="1">
          <mxGeometry y="208" width="200" height="26" as="geometry" />
        </mxCell>
        <mxCell id="p3bBlaLwR1i7pQpd7jYo-147" value="Expeditor" style="swimlane;fontStyle=0;childLayout=stackLayout;horizontal=1;startSize=26;fillColor=#F45B69;horizontalStack=0;resizeParent=1;resizeParentMax=0;resizeLast=0;collapsible=1;marginBottom=0;strokeColor=#028090;fontColor=#E4FDE1;" parent="WIyWlLk6GJQsqaUBKTNV-1" vertex="1">
          <mxGeometry x="240" y="800" width="200" height="234" as="geometry" />
        </mxCell>
        <mxCell id="p3bBlaLwR1i7pQpd7jYo-151" value="+ _id: ObjectID" style="text;strokeColor=none;fillColor=none;align=left;verticalAlign=top;spacingLeft=4;spacingRight=4;overflow=hidden;rotatable=0;points=[[0,0.5],[1,0.5]];portConstraint=eastwest;fontColor=#E4FDE1;" parent="p3bBlaLwR1i7pQpd7jYo-147" vertex="1">
          <mxGeometry y="26" width="200" height="26" as="geometry" />
        </mxCell>
        <mxCell id="p3bBlaLwR1i7pQpd7jYo-162" value="+ onBreak: Boolean" style="text;strokeColor=none;fillColor=none;align=left;verticalAlign=top;spacingLeft=4;spacingRight=4;overflow=hidden;rotatable=0;points=[[0,0.5],[1,0.5]];portConstraint=eastwest;fontColor=#E4FDE1;" parent="p3bBlaLwR1i7pQpd7jYo-147" vertex="1">
          <mxGeometry y="52" width="200" height="26" as="geometry" />
        </mxCell>
        <mxCell id="p3bBlaLwR1i7pQpd7jYo-163" value="+ firstTake: String" style="text;strokeColor=none;fillColor=none;align=left;verticalAlign=top;spacingLeft=4;spacingRight=4;overflow=hidden;rotatable=0;points=[[0,0.5],[1,0.5]];portConstraint=eastwest;fontColor=#E4FDE1;" parent="p3bBlaLwR1i7pQpd7jYo-147" vertex="1">
          <mxGeometry y="78" width="200" height="26" as="geometry" />
        </mxCell>
        <mxCell id="p3bBlaLwR1i7pQpd7jYo-148" value="+ transport: String" style="text;strokeColor=none;fillColor=none;align=left;verticalAlign=top;spacingLeft=4;spacingRight=4;overflow=hidden;rotatable=0;points=[[0,0.5],[1,0.5]];portConstraint=eastwest;fontColor=#E4FDE1;" parent="p3bBlaLwR1i7pQpd7jYo-147" vertex="1">
          <mxGeometry y="104" width="200" height="26" as="geometry" />
        </mxCell>
        <mxCell id="p3bBlaLwR1i7pQpd7jYo-149" value="+ confidence: Number" style="text;strokeColor=none;fillColor=none;align=left;verticalAlign=top;spacingLeft=4;spacingRight=4;overflow=hidden;rotatable=0;points=[[0,0.5],[1,0.5]];portConstraint=eastwest;fontColor=#E4FDE1;" parent="p3bBlaLwR1i7pQpd7jYo-147" vertex="1">
          <mxGeometry y="130" width="200" height="26" as="geometry" />
        </mxCell>
        <mxCell id="p3bBlaLwR1i7pQpd7jYo-152" value="+ fullName: String" style="text;strokeColor=none;fillColor=none;align=left;verticalAlign=top;spacingLeft=4;spacingRight=4;overflow=hidden;rotatable=0;points=[[0,0.5],[1,0.5]];portConstraint=eastwest;fontColor=#E4FDE1;" parent="p3bBlaLwR1i7pQpd7jYo-147" vertex="1">
          <mxGeometry y="156" width="200" height="26" as="geometry" />
        </mxCell>
        <mxCell id="p3bBlaLwR1i7pQpd7jYo-157" value="+ phone: String" style="text;strokeColor=none;fillColor=none;align=left;verticalAlign=top;spacingLeft=4;spacingRight=4;overflow=hidden;rotatable=0;points=[[0,0.5],[1,0.5]];portConstraint=eastwest;fontColor=#E4FDE1;" parent="p3bBlaLwR1i7pQpd7jYo-147" vertex="1">
          <mxGeometry y="182" width="200" height="26" as="geometry" />
        </mxCell>
        <mxCell id="p3bBlaLwR1i7pQpd7jYo-150" value="+ state: ObjectID" style="text;strokeColor=none;fillColor=none;align=left;verticalAlign=top;spacingLeft=4;spacingRight=4;overflow=hidden;rotatable=0;points=[[0,0.5],[1,0.5]];portConstraint=eastwest;fontColor=#E4FDE1;" parent="p3bBlaLwR1i7pQpd7jYo-147" vertex="1">
          <mxGeometry y="208" width="200" height="26" as="geometry" />
        </mxCell>
        <mxCell id="p3bBlaLwR1i7pQpd7jYo-158" value="ExpeditorState" style="swimlane;fontStyle=0;childLayout=stackLayout;horizontal=1;startSize=26;fillColor=#F45B69;horizontalStack=0;resizeParent=1;resizeParentMax=0;resizeLast=0;collapsible=1;marginBottom=0;strokeColor=#028090;fontColor=#E4FDE1;" parent="WIyWlLk6GJQsqaUBKTNV-1" vertex="1">
          <mxGeometry x="480" y="904" width="160" height="130" as="geometry" />
        </mxCell>
        <mxCell id="p3bBlaLwR1i7pQpd7jYo-159" value="+ _id: ObjectID" style="text;strokeColor=none;fillColor=none;align=left;verticalAlign=top;spacingLeft=4;spacingRight=4;overflow=hidden;rotatable=0;points=[[0,0.5],[1,0.5]];portConstraint=eastwest;fontColor=#E4FDE1;" parent="p3bBlaLwR1i7pQpd7jYo-158" vertex="1">
          <mxGeometry y="26" width="160" height="26" as="geometry" />
        </mxCell>
        <mxCell id="p3bBlaLwR1i7pQpd7jYo-160" value="+ order: Number" style="text;strokeColor=none;fillColor=none;align=left;verticalAlign=top;spacingLeft=4;spacingRight=4;overflow=hidden;rotatable=0;points=[[0,0.5],[1,0.5]];portConstraint=eastwest;fontColor=#E4FDE1;" parent="p3bBlaLwR1i7pQpd7jYo-158" vertex="1">
          <mxGeometry y="52" width="160" height="26" as="geometry" />
        </mxCell>
        <mxCell id="p3bBlaLwR1i7pQpd7jYo-161" value="+ address: String" style="text;strokeColor=none;fillColor=none;align=left;verticalAlign=top;spacingLeft=4;spacingRight=4;overflow=hidden;rotatable=0;points=[[0,0.5],[1,0.5]];portConstraint=eastwest;fontColor=#E4FDE1;" parent="p3bBlaLwR1i7pQpd7jYo-158" vertex="1">
          <mxGeometry y="78" width="160" height="26" as="geometry" />
        </mxCell>
        <mxCell id="p3bBlaLwR1i7pQpd7jYo-164" value="+ started: String" style="text;strokeColor=none;fillColor=none;align=left;verticalAlign=top;spacingLeft=4;spacingRight=4;overflow=hidden;rotatable=0;points=[[0,0.5],[1,0.5]];portConstraint=eastwest;fontColor=#E4FDE1;" parent="p3bBlaLwR1i7pQpd7jYo-158" vertex="1">
          <mxGeometry y="104" width="160" height="26" as="geometry" />
        </mxCell>
        <mxCell id="p3bBlaLwR1i7pQpd7jYo-166" value="Logist" style="swimlane;fontStyle=0;childLayout=stackLayout;horizontal=1;startSize=26;fillColor=#F45B69;horizontalStack=0;resizeParent=1;resizeParentMax=0;resizeLast=0;collapsible=1;marginBottom=0;strokeColor=#028090;fontColor=#E4FDE1;" parent="WIyWlLk6GJQsqaUBKTNV-1" vertex="1">
          <mxGeometry x="240" y="1080" width="200" height="78" as="geometry" />
        </mxCell>
        <mxCell id="p3bBlaLwR1i7pQpd7jYo-167" value="+ _id: ObjectID" style="text;strokeColor=none;fillColor=none;align=left;verticalAlign=top;spacingLeft=4;spacingRight=4;overflow=hidden;rotatable=0;points=[[0,0.5],[1,0.5]];portConstraint=eastwest;fontColor=#E4FDE1;" parent="p3bBlaLwR1i7pQpd7jYo-166" vertex="1">
          <mxGeometry y="26" width="200" height="26" as="geometry" />
        </mxCell>
        <mxCell id="p3bBlaLwR1i7pQpd7jYo-168" value="+ fullName: String" style="text;strokeColor=none;fillColor=none;align=left;verticalAlign=top;spacingLeft=4;spacingRight=4;overflow=hidden;rotatable=0;points=[[0,0.5],[1,0.5]];portConstraint=eastwest;fontColor=#E4FDE1;" parent="p3bBlaLwR1i7pQpd7jYo-166" vertex="1">
          <mxGeometry y="52" width="200" height="26" as="geometry" />
        </mxCell>
        <mxCell id="p3bBlaLwR1i7pQpd7jYo-172" value="permissions" style="swimlane;fontStyle=0;childLayout=stackLayout;horizontal=1;startSize=26;horizontalStack=0;resizeParent=1;resizeParentMax=0;resizeLast=0;collapsible=1;marginBottom=0;strokeColor=#028090;fontColor=#E4FDE1;fillColor=#625DF4;" parent="WIyWlLk6GJQsqaUBKTNV-1" vertex="1">
          <mxGeometry x="490" y="650" width="140" height="130" as="geometry" />
        </mxCell>
        <mxCell id="p3bBlaLwR1i7pQpd7jYo-173" value="+ isAdmin: Boolean" style="text;strokeColor=none;fillColor=none;align=left;verticalAlign=top;spacingLeft=4;spacingRight=4;overflow=hidden;rotatable=0;points=[[0,0.5],[1,0.5]];portConstraint=eastwest;fontColor=#E4FDE1;" parent="p3bBlaLwR1i7pQpd7jYo-172" vertex="1">
          <mxGeometry y="26" width="140" height="26" as="geometry" />
        </mxCell>
        <mxCell id="p3bBlaLwR1i7pQpd7jYo-174" value="+ role: String" style="text;strokeColor=none;fillColor=none;align=left;verticalAlign=top;spacingLeft=4;spacingRight=4;overflow=hidden;rotatable=0;points=[[0,0.5],[1,0.5]];portConstraint=eastwest;fontColor=#E4FDE1;" parent="p3bBlaLwR1i7pQpd7jYo-172" vertex="1">
          <mxGeometry y="52" width="140" height="26" as="geometry" />
        </mxCell>
        <mxCell id="Ciw7vDTX5P3Gi1w54qQS-0" value="+ roleModel: String" style="text;strokeColor=none;fillColor=none;align=left;verticalAlign=top;spacingLeft=4;spacingRight=4;overflow=hidden;rotatable=0;points=[[0,0.5],[1,0.5]];portConstraint=eastwest;fontColor=#E4FDE1;" vertex="1" parent="p3bBlaLwR1i7pQpd7jYo-172">
          <mxGeometry y="78" width="140" height="26" as="geometry" />
        </mxCell>
        <mxCell id="p3bBlaLwR1i7pQpd7jYo-175" value="+ active: Boolean" style="text;strokeColor=none;fillColor=none;align=left;verticalAlign=top;spacingLeft=4;spacingRight=4;overflow=hidden;rotatable=0;points=[[0,0.5],[1,0.5]];portConstraint=eastwest;fontColor=#E4FDE1;" parent="p3bBlaLwR1i7pQpd7jYo-172" vertex="1">
          <mxGeometry y="104" width="140" height="26" as="geometry" />
        </mxCell>
        <mxCell id="p3bBlaLwR1i7pQpd7jYo-225" value="Order" style="swimlane;fontStyle=0;childLayout=stackLayout;horizontal=1;startSize=26;fillColor=#F45B69;horizontalStack=0;resizeParent=1;resizeParentMax=0;resizeLast=0;collapsible=1;marginBottom=0;strokeColor=#028090;fontColor=#E4FDE1;" parent="WIyWlLk6GJQsqaUBKTNV-1" vertex="1">
          <mxGeometry x="240" y="1200" width="200" height="208" as="geometry" />
        </mxCell>
        <mxCell id="p3bBlaLwR1i7pQpd7jYo-226" value="+ _id: ObjectID" style="text;strokeColor=none;fillColor=none;align=left;verticalAlign=top;spacingLeft=4;spacingRight=4;overflow=hidden;rotatable=0;points=[[0,0.5],[1,0.5]];portConstraint=eastwest;fontColor=#E4FDE1;" parent="p3bBlaLwR1i7pQpd7jYo-225" vertex="1">
          <mxGeometry y="26" width="200" height="26" as="geometry" />
        </mxCell>
        <mxCell id="p3bBlaLwR1i7pQpd7jYo-227" value="+ identifier: Number" style="text;strokeColor=none;fillColor=none;align=left;verticalAlign=top;spacingLeft=4;spacingRight=4;overflow=hidden;rotatable=0;points=[[0,0.5],[1,0.5]];portConstraint=eastwest;fontColor=#E4FDE1;" parent="p3bBlaLwR1i7pQpd7jYo-225" vertex="1">
          <mxGeometry y="52" width="200" height="26" as="geometry" />
        </mxCell>
        <mxCell id="p3bBlaLwR1i7pQpd7jYo-242" value="+ status: String" style="text;strokeColor=none;fillColor=none;align=left;verticalAlign=top;spacingLeft=4;spacingRight=4;overflow=hidden;rotatable=0;points=[[0,0.5],[1,0.5]];portConstraint=eastwest;fontColor=#E4FDE1;" parent="p3bBlaLwR1i7pQpd7jYo-225" vertex="1">
          <mxGeometry y="78" width="200" height="26" as="geometry" />
        </mxCell>
        <mxCell id="p3bBlaLwR1i7pQpd7jYo-230" value="+ client: ObjectID" style="text;strokeColor=none;fillColor=none;align=left;verticalAlign=top;spacingLeft=4;spacingRight=4;overflow=hidden;rotatable=0;points=[[0,0.5],[1,0.5]];portConstraint=eastwest;fontColor=#E4FDE1;" parent="p3bBlaLwR1i7pQpd7jYo-225" vertex="1">
          <mxGeometry y="104" width="200" height="26" as="geometry" />
        </mxCell>
        <mxCell id="p3bBlaLwR1i7pQpd7jYo-249" value="+ pay: Object" style="text;strokeColor=none;fillColor=none;align=left;verticalAlign=top;spacingLeft=4;spacingRight=4;overflow=hidden;rotatable=0;points=[[0,0.5],[1,0.5]];portConstraint=eastwest;fontColor=#E4FDE1;" parent="p3bBlaLwR1i7pQpd7jYo-225" vertex="1">
          <mxGeometry y="130" width="200" height="26" as="geometry" />
        </mxCell>
        <mxCell id="p3bBlaLwR1i7pQpd7jYo-253" value="+ order: Object" style="text;strokeColor=none;fillColor=none;align=left;verticalAlign=top;spacingLeft=4;spacingRight=4;overflow=hidden;rotatable=0;points=[[0,0.5],[1,0.5]];portConstraint=eastwest;fontColor=#E4FDE1;" parent="p3bBlaLwR1i7pQpd7jYo-225" vertex="1">
          <mxGeometry y="156" width="200" height="26" as="geometry" />
        </mxCell>
        <mxCell id="p3bBlaLwR1i7pQpd7jYo-228" value="+ time: Object" style="text;strokeColor=none;fillColor=none;align=left;verticalAlign=top;spacingLeft=4;spacingRight=4;overflow=hidden;rotatable=0;points=[[0,0.5],[1,0.5]];portConstraint=eastwest;fontColor=#E4FDE1;" parent="p3bBlaLwR1i7pQpd7jYo-225" vertex="1">
          <mxGeometry y="182" width="200" height="26" as="geometry" />
        </mxCell>
        <mxCell id="p3bBlaLwR1i7pQpd7jYo-236" style="edgeStyle=orthogonalEdgeStyle;curved=0;rounded=1;sketch=0;orthogonalLoop=1;jettySize=auto;html=1;exitX=1;exitY=0.5;exitDx=0;exitDy=0;entryX=0;entryY=0.5;entryDx=0;entryDy=0;strokeColor=#028090;fillColor=#F45B69;fontColor=#E4FDE1;" parent="WIyWlLk6GJQsqaUBKTNV-1" source="p3bBlaLwR1i7pQpd7jYo-249" target="p3bBlaLwR1i7pQpd7jYo-234" edge="1">
          <mxGeometry relative="1" as="geometry" />
        </mxCell>
        <mxCell id="p3bBlaLwR1i7pQpd7jYo-250" style="edgeStyle=orthogonalEdgeStyle;curved=0;rounded=1;sketch=0;orthogonalLoop=1;jettySize=auto;html=1;exitX=1;exitY=0.5;exitDx=0;exitDy=0;entryX=0;entryY=0.5;entryDx=0;entryDy=0;strokeColor=#028090;fillColor=#F45B69;fontColor=#E4FDE1;" parent="WIyWlLk6GJQsqaUBKTNV-1" source="p3bBlaLwR1i7pQpd7jYo-245" target="p3bBlaLwR1i7pQpd7jYo-106" edge="1">
          <mxGeometry relative="1" as="geometry" />
        </mxCell>
        <mxCell id="p3bBlaLwR1i7pQpd7jYo-251" style="edgeStyle=orthogonalEdgeStyle;curved=0;rounded=1;sketch=0;orthogonalLoop=1;jettySize=auto;html=1;exitX=1;exitY=0.5;exitDx=0;exitDy=0;entryX=0;entryY=0.5;entryDx=0;entryDy=0;strokeColor=#028090;fillColor=#F45B69;fontColor=#E4FDE1;" parent="WIyWlLk6GJQsqaUBKTNV-1" source="p3bBlaLwR1i7pQpd7jYo-246" target="p3bBlaLwR1i7pQpd7jYo-127" edge="1">
          <mxGeometry relative="1" as="geometry" />
        </mxCell>
        <mxCell id="p3bBlaLwR1i7pQpd7jYo-252" style="edgeStyle=orthogonalEdgeStyle;curved=0;rounded=1;sketch=0;orthogonalLoop=1;jettySize=auto;html=1;exitX=1;exitY=0.5;exitDx=0;exitDy=0;entryX=0;entryY=0.5;entryDx=0;entryDy=0;strokeColor=#028090;fillColor=#F45B69;fontColor=#E4FDE1;" parent="WIyWlLk6GJQsqaUBKTNV-1" source="p3bBlaLwR1i7pQpd7jYo-247" target="p3bBlaLwR1i7pQpd7jYo-123" edge="1">
          <mxGeometry relative="1" as="geometry" />
        </mxCell>
        <mxCell id="p3bBlaLwR1i7pQpd7jYo-254" style="edgeStyle=orthogonalEdgeStyle;curved=0;rounded=1;sketch=0;orthogonalLoop=1;jettySize=auto;html=1;exitX=1;exitY=0.5;exitDx=0;exitDy=0;strokeColor=#028090;fillColor=#F45B69;fontColor=#E4FDE1;" parent="WIyWlLk6GJQsqaUBKTNV-1" source="p3bBlaLwR1i7pQpd7jYo-253" target="p3bBlaLwR1i7pQpd7jYo-246" edge="1">
          <mxGeometry relative="1" as="geometry" />
        </mxCell>
        <mxCell id="p3bBlaLwR1i7pQpd7jYo-265" style="edgeStyle=orthogonalEdgeStyle;curved=0;rounded=1;sketch=0;orthogonalLoop=1;jettySize=auto;html=1;exitX=1;exitY=0.5;exitDx=0;exitDy=0;entryX=0;entryY=0.5;entryDx=0;entryDy=0;strokeColor=#028090;fillColor=#F45B69;fontColor=#E4FDE1;" parent="WIyWlLk6GJQsqaUBKTNV-1" source="p3bBlaLwR1i7pQpd7jYo-228" target="p3bBlaLwR1i7pQpd7jYo-263" edge="1">
          <mxGeometry relative="1" as="geometry" />
        </mxCell>
        <mxCell id="p3bBlaLwR1i7pQpd7jYo-243" value="order" style="swimlane;fontStyle=0;childLayout=stackLayout;horizontal=1;startSize=26;horizontalStack=0;resizeParent=1;resizeParentMax=0;resizeLast=0;collapsible=1;marginBottom=0;strokeColor=#028090;fontColor=#E4FDE1;fillColor=#625DF4;" parent="WIyWlLk6GJQsqaUBKTNV-1" vertex="1">
          <mxGeometry x="720" y="1304" width="200" height="104" as="geometry" />
        </mxCell>
        <mxCell id="p3bBlaLwR1i7pQpd7jYo-245" value="+ route: Object" style="text;strokeColor=none;fillColor=none;align=left;verticalAlign=top;spacingLeft=4;spacingRight=4;overflow=hidden;rotatable=0;points=[[0,0.5],[1,0.5]];portConstraint=eastwest;fontColor=#E4FDE1;" parent="p3bBlaLwR1i7pQpd7jYo-243" vertex="1">
          <mxGeometry y="26" width="200" height="26" as="geometry" />
        </mxCell>
        <mxCell id="p3bBlaLwR1i7pQpd7jYo-246" value="+ addresses: Array&lt;address&gt;" style="text;strokeColor=none;fillColor=none;align=left;verticalAlign=top;spacingLeft=4;spacingRight=4;overflow=hidden;rotatable=0;points=[[0,0.5],[1,0.5]];portConstraint=eastwest;fontColor=#E4FDE1;" parent="p3bBlaLwR1i7pQpd7jYo-243" vertex="1">
          <mxGeometry y="52" width="200" height="26" as="geometry" />
        </mxCell>
        <mxCell id="p3bBlaLwR1i7pQpd7jYo-247" value="+ info: Object" style="text;strokeColor=none;fillColor=none;align=left;verticalAlign=top;spacingLeft=4;spacingRight=4;overflow=hidden;rotatable=0;points=[[0,0.5],[1,0.5]];portConstraint=eastwest;fontColor=#E4FDE1;" parent="p3bBlaLwR1i7pQpd7jYo-243" vertex="1">
          <mxGeometry y="78" width="200" height="26" as="geometry" />
        </mxCell>
        <mxCell id="p3bBlaLwR1i7pQpd7jYo-255" value="time" style="swimlane;fontStyle=0;childLayout=stackLayout;horizontal=1;startSize=26;horizontalStack=0;resizeParent=1;resizeParentMax=0;resizeLast=0;collapsible=1;marginBottom=0;strokeColor=#028090;fontColor=#E4FDE1;fillColor=#625DF4;" parent="WIyWlLk6GJQsqaUBKTNV-1" vertex="1">
          <mxGeometry x="720" y="1440" width="200" height="156" as="geometry" />
        </mxCell>
        <mxCell id="p3bBlaLwR1i7pQpd7jYo-256" value="+ deliveryFrom: String" style="text;strokeColor=none;fillColor=none;align=left;verticalAlign=top;spacingLeft=4;spacingRight=4;overflow=hidden;rotatable=0;points=[[0,0.5],[1,0.5]];portConstraint=eastwest;fontColor=#E4FDE1;" parent="p3bBlaLwR1i7pQpd7jYo-255" vertex="1">
          <mxGeometry y="26" width="200" height="26" as="geometry" />
        </mxCell>
        <mxCell id="p3bBlaLwR1i7pQpd7jYo-257" value="+ deliveryTo: String" style="text;strokeColor=none;fillColor=none;align=left;verticalAlign=top;spacingLeft=4;spacingRight=4;overflow=hidden;rotatable=0;points=[[0,0.5],[1,0.5]];portConstraint=eastwest;fontColor=#E4FDE1;" parent="p3bBlaLwR1i7pQpd7jYo-255" vertex="1">
          <mxGeometry y="52" width="200" height="26" as="geometry" />
        </mxCell>
        <mxCell id="p3bBlaLwR1i7pQpd7jYo-263" value="+ date: String" style="text;strokeColor=none;fillColor=none;align=left;verticalAlign=top;spacingLeft=4;spacingRight=4;overflow=hidden;rotatable=0;points=[[0,0.5],[1,0.5]];portConstraint=eastwest;fontColor=#E4FDE1;" parent="p3bBlaLwR1i7pQpd7jYo-255" vertex="1">
          <mxGeometry y="78" width="200" height="26" as="geometry" />
        </mxCell>
        <mxCell id="p3bBlaLwR1i7pQpd7jYo-264" value="+ time: String" style="text;strokeColor=none;fillColor=none;align=left;verticalAlign=top;spacingLeft=4;spacingRight=4;overflow=hidden;rotatable=0;points=[[0,0.5],[1,0.5]];portConstraint=eastwest;fontColor=#E4FDE1;" parent="p3bBlaLwR1i7pQpd7jYo-255" vertex="1">
          <mxGeometry y="104" width="200" height="26" as="geometry" />
        </mxCell>
        <mxCell id="p3bBlaLwR1i7pQpd7jYo-229" value="+ month: String" style="text;strokeColor=none;fillColor=none;align=left;verticalAlign=top;spacingLeft=4;spacingRight=4;overflow=hidden;rotatable=0;points=[[0,0.5],[1,0.5]];portConstraint=eastwest;fontColor=#E4FDE1;" parent="p3bBlaLwR1i7pQpd7jYo-255" vertex="1">
          <mxGeometry y="130" width="200" height="26" as="geometry" />
        </mxCell>
        <mxCell id="p3bBlaLwR1i7pQpd7jYo-232" value="pay" style="swimlane;fontStyle=0;childLayout=stackLayout;horizontal=1;startSize=26;horizontalStack=0;resizeParent=1;resizeParentMax=0;resizeLast=0;collapsible=1;marginBottom=0;strokeColor=#028090;fontColor=#E4FDE1;fillColor=#625DF4;" parent="WIyWlLk6GJQsqaUBKTNV-1" vertex="1">
          <mxGeometry x="720" y="1070" width="200" height="208" as="geometry" />
        </mxCell>
        <mxCell id="p3bBlaLwR1i7pQpd7jYo-233" value="+ form: String" style="text;strokeColor=none;fillColor=none;align=left;verticalAlign=top;spacingLeft=4;spacingRight=4;overflow=hidden;rotatable=0;points=[[0,0.5],[1,0.5]];portConstraint=eastwest;fontColor=#E4FDE1;" parent="p3bBlaLwR1i7pQpd7jYo-232" vertex="1">
          <mxGeometry y="26" width="200" height="26" as="geometry" />
        </mxCell>
        <mxCell id="p3bBlaLwR1i7pQpd7jYo-234" value="+ pays: String" style="text;strokeColor=none;fillColor=none;align=left;verticalAlign=top;spacingLeft=4;spacingRight=4;overflow=hidden;rotatable=0;points=[[0,0.5],[1,0.5]];portConstraint=eastwest;fontColor=#E4FDE1;" parent="p3bBlaLwR1i7pQpd7jYo-232" vertex="1">
          <mxGeometry y="52" width="200" height="26" as="geometry" />
        </mxCell>
        <mxCell id="p3bBlaLwR1i7pQpd7jYo-235" value="+ type: String" style="text;strokeColor=none;fillColor=none;align=left;verticalAlign=top;spacingLeft=4;spacingRight=4;overflow=hidden;rotatable=0;points=[[0,0.5],[1,0.5]];portConstraint=eastwest;fontColor=#E4FDE1;" parent="p3bBlaLwR1i7pQpd7jYo-232" vertex="1">
          <mxGeometry y="78" width="200" height="26" as="geometry" />
        </mxCell>
        <mxCell id="p3bBlaLwR1i7pQpd7jYo-238" value="+ price: Number" style="text;strokeColor=none;fillColor=none;align=left;verticalAlign=top;spacingLeft=4;spacingRight=4;overflow=hidden;rotatable=0;points=[[0,0.5],[1,0.5]];portConstraint=eastwest;fontColor=#E4FDE1;" parent="p3bBlaLwR1i7pQpd7jYo-232" vertex="1">
          <mxGeometry y="104" width="200" height="26" as="geometry" />
        </mxCell>
        <mxCell id="p3bBlaLwR1i7pQpd7jYo-239" value="+ priceDiscounted: Number" style="text;strokeColor=none;fillColor=none;align=left;verticalAlign=top;spacingLeft=4;spacingRight=4;overflow=hidden;rotatable=0;points=[[0,0.5],[1,0.5]];portConstraint=eastwest;fontColor=#E4FDE1;" parent="p3bBlaLwR1i7pQpd7jYo-232" vertex="1">
          <mxGeometry y="130" width="200" height="26" as="geometry" />
        </mxCell>
        <mxCell id="p3bBlaLwR1i7pQpd7jYo-240" value="+ buyin: Number" style="text;strokeColor=none;fillColor=none;align=left;verticalAlign=top;spacingLeft=4;spacingRight=4;overflow=hidden;rotatable=0;points=[[0,0.5],[1,0.5]];portConstraint=eastwest;fontColor=#E4FDE1;" parent="p3bBlaLwR1i7pQpd7jYo-232" vertex="1">
          <mxGeometry y="156" width="200" height="26" as="geometry" />
        </mxCell>
        <mxCell id="p3bBlaLwR1i7pQpd7jYo-237" value="+ priceAdditionals: Number" style="text;strokeColor=none;fillColor=none;align=left;verticalAlign=top;spacingLeft=4;spacingRight=4;overflow=hidden;rotatable=0;points=[[0,0.5],[1,0.5]];portConstraint=eastwest;fontColor=#E4FDE1;" parent="p3bBlaLwR1i7pQpd7jYo-232" vertex="1">
          <mxGeometry y="182" width="200" height="26" as="geometry" />
        </mxCell>
      </root>
    </mxGraphModel>
  </diagram>
</mxfile>
